# Blender v2.73 (sub 0) OBJ File: 'cube.blend'
# www.blender.org
mtllib cube.mtl
o Plane.001
v -2.000000 0.000000 -3.500000
v 2.000000 0.000000 -3.500000
v -2.000000 4.000000 -3.500000
v 2.000000 4.000000 -3.500000
vn 0.000000 0.000000 1.000000
usemtl lens
s off
f 2//1 4//1 3//1
f 1//1 2//1 3//1
o Cube_Cube.002
v -1.000000 0.000000 1.000000
v -1.000000 0.000000 -1.000000
v 1.000000 0.000000 -1.000000
v 1.000000 0.000000 1.000000
v -1.000000 2.000000 1.000000
v -1.000000 2.000000 -1.000000
v 1.000000 2.000000 -1.000000
v 1.000000 2.000000 1.000000
vn -1.000000 0.000000 0.000000
vn 0.000000 0.000000 -1.000000
vn 1.000000 0.000000 0.000000
vn 0.000000 0.000000 1.000000
vn 0.000000 -1.000000 0.000000
vn 0.000000 1.000000 0.000000
usemtl Material.002
s off
f 10//2 6//2 5//2
f 11//3 7//3 6//3
f 12//4 8//4 7//4
f 9//5 5//5 8//5
f 6//6 7//6 8//6
f 11//7 10//7 9//7
f 9//2 10//2 5//2
f 10//3 11//3 6//3
f 11//4 12//4 7//4
f 12//5 9//5 8//5
f 5//6 6//6 8//6
f 12//7 11//7 9//7
o Plane
v -5.000000 0.000000 5.000000
v 5.000000 0.000000 5.000000
v -5.000000 0.000000 -5.000000
v 5.000000 0.000000 -5.000000
vn 0.000000 1.000000 0.000000
usemtl Material.001
s off
f 14//8 16//8 15//8
f 13//8 14//8 15//8
