# Blender v2.73 (sub 0) OBJ File: 'cube.blend'
# www.blender.org
mtllib refl_scene.mtl
o Cube_Cube.002
v -1.000000 0.000000 1.000000
v -1.000000 0.000000 -1.000000
v 1.000000 0.000000 -1.000000
v 1.000000 0.000000 1.000000
v -1.000000 2.000000 1.000000
v -1.000000 2.000000 -1.000000
v 1.000000 2.000000 -1.000000
v 1.000000 2.000000 1.000000
vn -1.000000 0.000000 0.000000
vn 0.000000 0.000000 -1.000000
vn 1.000000 0.000000 0.000000
vn 0.000000 0.000000 1.000000
vn 0.000000 -1.000000 0.000000
vn 0.000000 1.000000 0.000000
usemtl Material.002
s off
f 6//1 2//1 1//1
f 7//2 3//2 2//2
f 8//3 4//3 3//3
f 5//4 1//4 4//4
f 2//5 3//5 4//5
f 7//6 6//6 5//6
f 5//1 6//1 1//1
f 6//2 7//2 2//2
f 7//3 8//3 3//3
f 8//4 5//4 4//4
f 1//5 2//5 4//5
f 8//6 7//6 5//6
o Plane
v -5.000000 0.000000 5.000000
v 5.000000 0.000000 5.000000
v -5.000000 0.000000 -5.000000
v 5.000000 0.000000 -5.000000
vn 0.000000 1.000000 0.000000
usemtl Material.001
s off
f 10//7 12//7 11//7
f 9//7 10//7 11//7
o Plane.002
v -2.000000 0.000000 -3.500000
v 2.000000 0.000000 -3.500000
v -2.000000 4.000000 -3.500000
v 2.000000 4.000000 -3.500000
vn 0.000000 0.000000 1.000000
usemtl lens.001
s off
f 14//8 16//8 15//8
f 13//8 14//8 15//8
