# Blender v2.73 (sub 0) OBJ File: 'sidecube.blend'
# www.blender.org
mtllib sidecube.mtl
o Plane.001
v -2.000000 2.000000 1.000000
v -2.000000 0.000000 1.000000
v -2.000000 2.000000 -1.000000
v -2.000000 0.000000 -1.000000
vn 1.000000 0.000000 0.000000
usemtl mirror
s off
f 2//1 4//1 3//1
f 1//1 2//1 3//1
o Cube_Cube.001
v -0.500000 0.000000 0.500000
v -0.500000 0.000000 -0.500000
v 0.500000 0.000000 -0.500000
v 0.500000 0.000000 0.500000
v -0.500000 1.000000 0.500000
v -0.500000 1.000000 -0.500000
v 0.500000 1.000000 -0.500000
v 0.500000 1.000000 0.500000
vn -1.000000 0.000000 0.000000
vn 0.000000 0.000000 -1.000000
vn 1.000000 0.000000 0.000000
vn 0.000000 0.000000 1.000000
vn 0.000000 -1.000000 0.000000
vn 0.000000 1.000000 0.000000
usemtl cube
s off
f 10//2 6//2 5//2
f 11//3 7//3 6//3
f 12//4 8//4 7//4
f 9//5 5//5 8//5
f 6//6 7//6 8//6
f 11//7 10//7 9//7
f 9//2 10//2 5//2
f 10//3 11//3 6//3
f 11//4 12//4 7//4
f 12//5 9//5 8//5
f 5//6 6//6 8//6
f 12//7 11//7 9//7
o Plane
v -2.000000 0.000000 2.000000
v 2.000000 0.000000 2.000000
v -2.000000 0.000000 -2.000000
v 2.000000 0.000000 -2.000000
vn 0.000000 1.000000 0.000000
usemtl floor
s off
f 14//8 16//8 15//8
f 13//8 14//8 15//8
