# Blender v2.73 (sub 0) OBJ File: 'sphere.blend'
# www.blender.org
mtllib sphere.mtl
o Sphere
v -0.500000 0.866025 0.000000
v -0.866025 0.500000 0.000000
v -1.000000 -0.000000 0.000000
v -0.866025 -0.500000 0.000000
v -0.500000 -0.866025 0.000000
v -0.433013 0.866025 -0.250000
v -0.750000 0.500000 -0.433013
v -0.866025 -0.000000 -0.500000
v -0.750000 -0.500000 -0.433013
v -0.433013 -0.866025 -0.250000
v -0.250000 0.866025 -0.433013
v -0.433013 0.500000 -0.750000
v -0.500000 -0.000000 -0.866025
v -0.433013 -0.500000 -0.750000
v -0.250000 -0.866025 -0.433013
v -0.000000 0.866025 -0.500000
v -0.000000 0.500000 -0.866025
v -0.000000 -0.000000 -1.000000
v -0.000000 -0.500000 -0.866025
v -0.000000 -0.866025 -0.500000
v -0.000000 1.000000 0.000000
v 0.250000 0.866025 -0.433013
v 0.433013 0.500000 -0.750000
v 0.500000 -0.000000 -0.866025
v 0.433012 -0.500000 -0.750000
v 0.250000 -0.866025 -0.433013
v 0.433012 0.866025 -0.250000
v 0.750000 0.500000 -0.433013
v 0.866025 -0.000000 -0.500000
v 0.750000 -0.500000 -0.433013
v 0.433012 -0.866025 -0.250000
v 0.500000 0.866025 0.000000
v 0.866025 0.500000 0.000000
v 1.000000 -0.000000 0.000000
v 0.866025 -0.500000 0.000000
v 0.500000 -0.866025 -0.000000
v 0.433012 0.866025 0.250000
v 0.750000 0.500000 0.433013
v 0.866025 -0.000000 0.500000
v 0.750000 -0.500000 0.433013
v 0.433012 -0.866025 0.250000
v 0.250000 0.866025 0.433013
v 0.433012 0.500000 0.750000
v 0.500000 -0.000000 0.866025
v 0.433012 -0.500000 0.750000
v 0.250000 -0.866025 0.433013
v -0.000000 -1.000000 0.000000
v -0.000000 0.866025 0.500000
v -0.000000 0.500000 0.866025
v -0.000000 -0.000000 1.000000
v -0.000000 -0.500000 0.866025
v -0.000000 -0.866025 0.500000
v -0.250000 0.866025 0.433012
v -0.433013 0.500000 0.750000
v -0.500000 -0.000000 0.866025
v -0.433013 -0.500000 0.750000
v -0.250000 -0.866025 0.433013
v -0.433013 0.866025 0.250000
v -0.750000 0.500000 0.433013
v -0.866025 -0.000000 0.500000
v -0.750000 -0.500000 0.433013
v -0.433013 -0.866025 0.250000
vn -0.876000 -0.482300 0.000000
vn -0.758600 -0.482300 -0.438000
vn -0.459800 -0.847400 -0.265500
vn -1.000000 0.000000 0.000000
vn -0.866000 0.000000 -0.500000
vn -0.876000 0.482300 0.000000
vn -0.758600 0.482300 -0.438000
vn -0.530900 0.847400 0.000000
vn -0.459800 0.847400 -0.265400
vn -0.438000 -0.482300 -0.758600
vn -0.265400 -0.847400 -0.459800
vn -0.500000 0.000000 -0.866000
vn -0.438000 0.482300 -0.758600
vn -0.265500 0.847400 -0.459800
vn 0.000000 -0.482300 -0.876000
vn 0.000000 -0.847400 -0.530900
vn 0.000000 0.000000 -1.000000
vn 0.000000 0.482300 -0.876000
vn 0.000000 0.847400 -0.530900
vn 0.438000 -0.482300 -0.758600
vn 0.265500 -0.847400 -0.459800
vn 0.500000 0.000000 -0.866000
vn 0.438000 0.482300 -0.758600
vn 0.265400 0.847400 -0.459800
vn 0.758600 -0.482300 -0.438000
vn 0.459800 -0.847400 -0.265400
vn 0.866000 0.000000 -0.500000
vn 0.758600 0.482300 -0.438000
vn 0.459800 0.847400 -0.265400
vn 0.876000 -0.482300 0.000000
vn 0.530900 -0.847400 0.000000
vn 1.000000 0.000000 0.000000
vn 0.876000 0.482300 0.000000
vn 0.530900 0.847400 0.000000
vn 0.758600 -0.482300 0.438000
vn 0.459800 -0.847400 0.265400
vn 0.866000 0.000000 0.500000
vn 0.758600 0.482300 0.438000
vn 0.459800 0.847400 0.265500
vn 0.438000 -0.482300 0.758600
vn 0.265400 -0.847400 0.459800
vn 0.500000 0.000000 0.866000
vn 0.438000 0.482300 0.758600
vn 0.265400 0.847400 0.459800
vn 0.000000 -0.482300 0.876000
vn 0.000000 0.000000 1.000000
vn 0.000000 0.482300 0.876000
vn 0.000000 0.847400 0.530900
vn -0.438000 -0.482300 0.758600
vn -0.265400 -0.847400 0.459800
vn -0.500000 0.000000 0.866000
vn -0.438000 0.482300 0.758600
vn -0.265500 0.847400 0.459800
vn -0.758600 -0.482300 0.438000
vn -0.459800 -0.847400 0.265400
vn -0.866000 0.000000 0.500000
vn -0.758600 0.482300 0.438000
vn -0.459800 0.847400 0.265500
vn 0.000000 -1.000000 0.000000
vn -0.530900 -0.847400 0.000000
vn 0.000000 1.000000 0.000000
vn 0.000000 -0.847400 0.530900
usemtl Material.001
s 1
f 4//1 9//2 10//3
f 3//4 8//5 9//2
f 2//6 7//7 8//5
f 1//8 6//9 7//7
f 9//2 14//10 15//11
f 8//5 13//12 14//10
f 7//7 12//13 13//12
f 6//9 11//14 12//13
f 14//10 19//15 20//16
f 13//12 18//17 19//15
f 12//13 17//18 18//17
f 12//13 11//14 16//19
f 19//15 25//20 26//21
f 18//17 24//22 25//20
f 17//18 23//23 24//22
f 17//18 16//19 22//24
f 25//20 30//25 31//26
f 24//22 29//27 30//25
f 23//23 28//28 29//27
f 22//24 27//29 28//28
f 30//25 35//30 36//31
f 29//27 34//32 35//30
f 28//28 33//33 34//32
f 27//29 32//34 33//33
f 35//30 40//35 41//36
f 35//30 34//32 39//37
f 33//33 38//38 39//37
f 32//34 37//39 38//38
f 40//35 45//40 46//41
f 39//37 44//42 45//40
f 38//38 43//43 44//42
f 37//39 42//44 43//43
f 46//41 45//40 51//45
f 45//40 44//42 50//46
f 43//43 49//47 50//46
f 42//44 48//48 49//47
f 51//45 56//49 57//50
f 50//46 55//51 56//49
f 49//47 54//52 55//51
f 48//48 53//53 54//52
f 56//49 61//54 62//55
f 55//51 60//56 61//54
f 55//51 54//52 59//57
f 53//53 58//58 59//57
f 47//59 5//60 10//3
f 1//8 21//61 6//9
f 47//59 10//3 15//11
f 6//9 21//61 11//14
f 47//59 15//11 20//16
f 11//14 21//61 16//19
f 47//59 20//16 26//21
f 16//19 21//61 22//24
f 47//59 26//21 31//26
f 22//24 21//61 27//29
f 47//59 31//26 36//31
f 27//29 21//61 32//34
f 47//59 36//31 41//36
f 32//34 21//61 37//39
f 47//59 41//36 46//41
f 37//39 21//61 42//44
f 47//59 46//41 52//62
f 42//44 21//61 48//48
f 47//59 52//62 57//50
f 48//48 21//61 53//53
f 47//59 57//50 62//55
f 53//53 21//61 58//58
f 47//59 62//55 5//60
f 61//54 4//1 5//60
f 60//56 3//4 4//1
f 60//56 59//57 2//6
f 58//58 1//8 2//6
f 58//58 21//61 1//8
f 5//60 4//1 10//3
f 4//1 3//4 9//2
f 3//4 2//6 8//5
f 2//6 1//8 7//7
f 10//3 9//2 15//11
f 9//2 8//5 14//10
f 8//5 7//7 13//12
f 7//7 6//9 12//13
f 15//11 14//10 20//16
f 14//10 13//12 19//15
f 13//12 12//13 18//17
f 17//18 12//13 16//19
f 20//16 19//15 26//21
f 19//15 18//17 25//20
f 18//17 17//18 24//22
f 23//23 17//18 22//24
f 26//21 25//20 31//26
f 25//20 24//22 30//25
f 24//22 23//23 29//27
f 23//23 22//24 28//28
f 31//26 30//25 36//31
f 30//25 29//27 35//30
f 29//27 28//28 34//32
f 28//28 27//29 33//33
f 36//31 35//30 41//36
f 40//35 35//30 39//37
f 34//32 33//33 39//37
f 33//33 32//34 38//38
f 41//36 40//35 46//41
f 40//35 39//37 45//40
f 39//37 38//38 44//42
f 38//38 37//39 43//43
f 52//62 46//41 51//45
f 51//45 45//40 50//46
f 44//42 43//43 50//46
f 43//43 42//44 49//47
f 52//62 51//45 57//50
f 51//45 50//46 56//49
f 50//46 49//47 55//51
f 49//47 48//48 54//52
f 57//50 56//49 62//55
f 56//49 55//51 61//54
f 60//56 55//51 59//57
f 54//52 53//53 59//57
f 62//55 61//54 5//60
f 61//54 60//56 4//1
f 3//4 60//56 2//6
f 59//57 58//58 2//6
