# Blender v2.73 (sub 0) OBJ File: 'test.blend'
# www.blender.org
mtllib test.mtl
o Cube_Cube.001
v -0.229218 0.450000 -0.040290
v -0.129218 0.450000 -0.040290
v -0.129218 0.450000 0.059710
v -0.229218 0.450000 0.059710
v -0.229218 0.550000 -0.040290
v -0.129218 0.550000 -0.040290
v -0.129218 0.550000 0.059710
v -0.229218 0.550000 0.059710
vn 0.000000 0.000000 -1.000000
vn 1.000000 0.000000 0.000000
vn -0.000000 0.000000 1.000000
vn -1.000000 0.000000 -0.000000
vn 0.000000 -1.000000 0.000000
vn 0.000000 1.000000 0.000000
usemtl Material.006
s off
f 6//1 2//1 1//1
f 7//2 3//2 2//2
f 8//3 4//3 3//3
f 5//4 1//4 4//4
f 2//5 3//5 4//5
f 7//6 6//6 5//6
f 5//1 6//1 1//1
f 6//2 7//2 2//2
f 7//3 8//3 3//3
f 8//4 5//4 4//4
f 1//5 2//5 4//5
f 8//6 7//6 5//6
o Plane.001
v -0.994991 1.000000 -0.990290
v -0.994991 0.000000 -0.990290
v 1.005009 1.000000 -0.990290
v 1.005009 0.000000 -0.990290
vn -0.000000 -0.000000 1.000000
usemtl Material.002
s off
f 10//7 12//7 11//7
f 9//7 10//7 11//7
o Plane
v -0.994991 0.000000 -0.990290
v -0.994991 0.000000 1.009710
v 1.005009 0.000000 -0.990290
v 1.005009 0.000000 1.009710
vn 0.000000 1.000000 0.000000
usemtl Material.001
s off
f 14//8 16//8 15//8
f 13//8 14//8 15//8
o Cube.001_Cube.002
v -0.369991 0.000000 -0.365290
v 0.380009 0.000000 -0.365290
v 0.380009 0.000000 0.384710
v -0.369991 0.000000 0.384710
v -0.369991 0.100000 -0.365290
v 0.380009 0.100000 -0.365290
v 0.380009 0.100000 0.384710
v -0.369991 0.100000 0.384710
vn 0.000000 0.000000 -1.000000
vn 1.000000 0.000000 0.000000
vn -0.000000 0.000000 1.000000
vn -1.000000 0.000000 -0.000000
vn 0.000000 -1.000000 0.000000
vn 0.000000 1.000000 -0.000000
usemtl Material.003
s off
f 22//9 18//9 17//9
f 23//10 19//10 18//10
f 24//11 20//11 19//11
f 21//12 17//12 20//12
f 18//13 19//13 20//13
f 23//14 22//14 21//14
f 21//9 22//9 17//9
f 22//10 23//10 18//10
f 23//11 24//11 19//11
f 24//12 21//12 20//12
f 17//13 18//13 20//13
f 24//14 23//14 21//14
o Cube.002_Cube.003
v 0.146545 0.300000 -0.140290
v 0.446545 0.300000 -0.140290
v 0.446545 0.300000 0.159710
v 0.146545 0.300000 0.159710
v 0.146545 0.400000 -0.140290
v 0.446545 0.400000 -0.140290
v 0.446545 0.400000 0.159710
v 0.146545 0.400000 0.159710
vn 0.000000 0.000000 -1.000000
vn 1.000000 0.000000 0.000000
vn 0.000000 0.000000 1.000000
vn -1.000000 0.000000 0.000000
vn 0.000000 -1.000000 0.000000
vn 0.000000 1.000000 0.000000
usemtl Material.005
s off
f 30//15 26//15 25//15
f 31//16 27//16 26//16
f 32//17 28//17 27//17
f 29//18 25//18 28//18
f 26//19 27//19 28//19
f 31//20 30//20 29//20
f 29//15 30//15 25//15
f 30//16 31//16 26//16
f 31//17 32//17 27//17
f 32//18 29//18 28//18
f 25//19 26//19 28//19
f 32//20 31//20 29//20
o Cube.003_Cube.004
v -0.670735 0.150000 -0.240290
v -0.170735 0.150000 -0.240290
v -0.170735 0.150000 0.259710
v -0.670735 0.150000 0.259710
v -0.670735 0.250000 -0.240290
v -0.170735 0.250000 -0.240290
v -0.170735 0.250000 0.259710
v -0.670735 0.250000 0.259710
vn 0.000000 0.000000 -1.000000
vn 1.000000 0.000000 0.000000
vn -0.000000 0.000000 1.000000
vn -1.000000 0.000000 0.000000
vn 0.000000 -1.000000 0.000000
vn 0.000000 1.000000 0.000000
usemtl Material.004
s off
f 38//21 34//21 33//21
f 39//22 35//22 34//22
f 40//23 36//23 35//23
f 37//24 33//24 36//24
f 34//25 35//25 36//25
f 39//26 38//26 37//26
f 37//21 38//21 33//21
f 38//22 39//22 34//22
f 39//23 40//23 35//23
f 40//24 37//24 36//24
f 33//25 34//25 36//25
f 40//26 39//26 37//26
