# Blender v2.73 (sub 0) OBJ File: 'transpmirror.blend'
# www.blender.org
mtllib transpmirror.mtl
o Cube.001_Cube.002
v -0.500000 0.000000 2.500000
v -0.500000 0.000000 1.500000
v 0.500000 0.000000 1.500000
v 0.500000 0.000000 2.500000
v -0.500000 1.000000 2.500000
v -0.500000 1.000000 1.500000
v 0.500000 1.000000 1.500000
v 0.500000 1.000000 2.500000
vn -1.000000 0.000000 0.000000
vn 0.000000 0.000000 -1.000000
vn 1.000000 0.000000 0.000000
vn 0.000000 0.000000 1.000000
vn 0.000000 -1.000000 0.000000
vn 0.000000 1.000000 0.000000
usemtl Material.001
s off
f 6//1 2//1 1//1
f 7//2 3//2 2//2
f 8//3 4//3 3//3
f 5//4 1//4 4//4
f 2//5 3//5 4//5
f 7//6 6//6 5//6
f 5//1 6//1 1//1
f 6//2 7//2 2//2
f 7//3 8//3 3//3
f 8//4 5//4 4//4
f 1//5 2//5 4//5
f 8//6 7//6 5//6
o Cube_Cube.001
v 0.000000 0.000000 -2.000000
v 0.000000 0.000000 -3.000000
v 1.000000 0.000000 -3.000000
v 1.000000 0.000000 -2.000000
v 0.000000 2.000000 -2.000000
v 0.000000 2.000000 -3.000000
v 1.000000 2.000000 -3.000000
v 1.000000 2.000000 -2.000000
v 0.000000 1.000000 -3.000000
v 0.000000 1.000000 -2.000000
v -1.000000 0.000000 -2.000000
v -1.000000 0.000000 -3.000000
v -1.000000 1.000000 -3.000000
v -1.000000 1.000000 -2.000000
v -1.000000 0.000000 -1.000000
v -0.000000 0.000000 -1.000000
v 0.000000 0.500000 -2.000000
v -1.000000 0.500000 -2.000000
v -0.000000 0.500000 -1.000000
v -1.000000 0.500000 -1.000000
vn 0.000000 0.000000 -1.000000
vn 1.000000 0.000000 0.000000
vn 0.000000 0.000000 1.000000
vn 0.000000 1.000000 0.000000
vn -1.000000 0.000000 0.000000
usemtl 1
s off
f 17//7 15//7 11//7
f 16//8 12//8 11//8
f 12//9 18//9 25//9
f 15//10 14//10 13//10
f 13//11 14//11 17//11
f 15//7 17//7 14//7
f 17//7 11//7 10//7
f 15//8 16//8 11//8
f 18//9 12//9 16//9
f 12//9 25//9 9//9
f 16//9 13//9 18//9
f 16//10 15//10 13//10
f 18//11 13//11 17//11
usemtl 2
f 17//10 21//10 22//10
f 20//7 21//7 17//7
f 21//11 20//11 26//11
f 22//9 26//9 25//9
f 18//10 17//10 22//10
f 10//7 20//7 17//7
f 26//11 22//11 21//11
f 20//11 19//11 26//11
f 18//9 22//9 25//9
usemtl 3
f 19//11 23//11 28//11
f 26//10 28//10 27//10
f 23//9 24//9 27//9
f 25//8 27//8 24//8
f 26//11 19//11 28//11
f 25//10 26//10 27//10
f 28//9 23//9 27//9
f 9//8 25//8 24//8
o Plane.001
v -2.000000 0.000000 -0.000000
v 2.000000 0.000000 -0.000000
v -2.000000 2.000000 0.000000
v 2.000000 2.000000 0.000000
vn 0.000000 -0.000000 1.000000
usemtl glass
s off
f 30//12 32//12 31//12
f 29//12 30//12 31//12
o Plane
v -2.000000 0.000000 4.000000
v 2.000000 0.000000 4.000000
v -2.000000 0.000000 -4.000000
v 2.000000 0.000000 -4.000000
vn 0.000000 1.000000 0.000000
usemtl floor
s off
f 34//13 36//13 35//13
f 33//13 34//13 35//13
